<svg width="27" height="24" viewBox="0 0 27 24" fill="none" xmlns="http://www.w3.org/2000/svg">
<path fill-rule="evenodd" clip-rule="evenodd" d="M10.2214 15.4665C10.3829 15.9206 10.8452 16.1949 11.3212 16.119L24.0874 14.0828C24.5004 14.017 24.8288 13.701 24.9106 13.2909L26.2654 6.49865C26.3875 5.88644 25.925 5.31324 25.3008 5.30317L7.94122 5.02324C7.24354 5.01199 6.74913 5.70067 6.98289 6.35812L10.2214 15.4665Z" fill="white"/>
<path fill-rule="evenodd" clip-rule="evenodd" d="M10.8262 23.3593C12.1109 23.3593 13.1523 22.3178 13.1523 21.0331C13.1523 19.7484 12.1109 18.707 10.8262 18.707C9.54146 18.707 8.5 19.7484 8.5 21.0331C8.5 22.3178 9.54146 23.3593 10.8262 23.3593Z" fill="white"/>
<path fill-rule="evenodd" clip-rule="evenodd" d="M22.457 23.3593C23.7417 23.3593 24.7831 22.3178 24.7831 21.0331C24.7831 19.7484 23.7417 18.707 22.457 18.707C21.1723 18.707 20.1308 19.7484 20.1308 21.0331C20.1308 22.3178 21.1723 23.3593 22.457 23.3593Z" fill="white"/>
<path fill-rule="evenodd" clip-rule="evenodd" d="M4 2C5.933 2 7.5 1.77614 7.5 1.5C7.5 1.22386 5.933 1 4 1C2.067 1 0.5 1.22386 0.5 1.5C0.5 1.77614 2.067 2 4 2Z" fill="white"/>
<path fill-rule="evenodd" clip-rule="evenodd" d="M1.45442 0.651472C2.1177 0.556717 3.01745 0.5 4 0.5C4.98255 0.5 5.8823 0.556717 6.54558 0.651472C6.87345 0.69831 7.16489 0.757343 7.38495 0.831667C7.4917 0.867722 7.61185 0.917169 7.71511 0.989256C7.80017 1.04864 8 1.21275 8 1.5C8 1.78725 7.80017 1.95136 7.71511 2.01074C7.61185 2.08283 7.4917 2.13228 7.38495 2.16833C7.16489 2.24266 6.87345 2.30169 6.54558 2.34853C5.8823 2.44328 4.98255 2.5 4 2.5C3.01745 2.5 2.1177 2.44328 1.45442 2.34853C1.12655 2.30169 0.835108 2.24266 0.615051 2.16833C0.508302 2.13228 0.388151 2.08283 0.284892 2.01074C0.199835 1.95136 0 1.78725 0 1.5C0 1.21275 0.199835 1.04864 0.284892 0.989256C0.388151 0.917169 0.508302 0.867722 0.615051 0.831667C0.835108 0.757343 1.12655 0.69831 1.45442 0.651472Z" fill="white"/>
</svg>
