<svg width="32" height="25" viewBox="0 0 32 25" fill="none" xmlns="http://www.w3.org/2000/svg">
<rect y="0.5" width="32" height="24" rx="4" fill="#F6F6FA"/>
<path d="M17.682 9.34377L15.8652 13.2583H15.6814V8.50031H13.0859V16.5024H15.238C15.8219 16.5024 16.341 16.1672 16.5898 15.6481L18.4174 11.7444H18.6012V16.5024H21.1966V8.50031H19.0121C18.4498 8.50031 17.9199 8.83553 17.682 9.34377Z" fill="#319B42"/>
<path d="M7.97268 9.54923L6.90207 13.2583H6.71823L5.6368 9.54923C5.45296 8.92204 4.8798 8.50031 4.23095 8.50031H1.66797V16.5024H4.26339V11.7444H4.44723L5.9396 16.5024H7.66988L9.16225 11.7444H9.34609V16.5024H11.9415V8.50031H9.37853C8.72968 8.50031 8.14571 8.92204 7.97268 9.54923Z" fill="#319B42"/>
<path d="M22.3247 12.0674V16.5024H24.9209V13.9063H27.7119C28.9235 13.9063 29.9512 13.1383 30.3298 12.0674H22.3247Z" fill="#319B42"/>
<path d="M27.636 8.50031H21.8594C22.2164 10.4041 23.8823 11.7454 25.8836 11.7454H30.3729C30.4054 11.5724 30.427 11.3776 30.427 11.1829C30.427 9.6361 29.183 8.50031 27.636 8.50031Z" fill="url(#paint0_linear_17_1070)"/>
<defs>
<linearGradient id="paint0_linear_17_1070" x1="21.8594" y1="10.1229" x2="30.427" y2="10.1229" gradientUnits="userSpaceOnUse">
<stop stop-color="#00A3E1"/>
<stop offset="0.3042" stop-color="#009ADD"/>
<stop offset="0.7987" stop-color="#0082D4"/>
<stop offset="1" stop-color="#0076CF"/>
</linearGradient>
</defs>
</svg>
