<svg width="23" height="22" viewBox="0 0 23 22" fill="none" xmlns="http://www.w3.org/2000/svg">
<path fill-rule="evenodd" clip-rule="evenodd" d="M1.39249 10.7635C0.435262 11.7047 1.10172 13.333 2.44418 13.333H2.99997V19.3332C2.99997 20.4378 3.89541 21.3332 4.99997 21.3332H9.24997C9.52612 21.3332 9.74997 21.1093 9.74997 20.8332V17.7433C9.74997 16.6387 10.6454 15.7433 11.75 15.7433H12.25C13.3545 15.7433 14.25 16.6387 14.25 17.7433V20.8332C14.25 21.1093 14.4738 21.3332 14.75 21.3332H19C20.1045 21.3332 21 20.4378 21 19.3332V13.333H21.3787C22.7151 13.333 23.3843 11.7173 22.4393 10.7724L12.7012 1.03434C12.313 0.646147 11.6844 0.643503 11.2929 1.02842L1.39249 10.7635Z" fill="#CCCCCC"/>
</svg>
